<svg width="1440" height="700" viewBox="0 0 1440 700" fill="none" xmlns="http://www.w3.org/2000/svg">
<g clip-path="url(#clip0_0_4122)">
<rect width="1440" height="700" fill="#014E56"/>
<mask id="mask0_0_4122" style="mask-type:luminance" maskUnits="userSpaceOnUse" x="0" y="0" width="1440" height="700">
<rect width="1440" height="700" fill="white"/>
</mask>
<g mask="url(#mask0_0_4122)">
<rect width="100" height="100" transform="matrix(1 0 0 -1 0 450)" fill="#79C8C7"/>
<path fill-rule="evenodd" clip-rule="evenodd" d="M0 450C-55.2285 450 -100 405.228 -100 350C-100 294.772 -55.2285 250 0 250C55.2285 250 100 294.772 100 350C100 405.228 55.2285 450 0 450ZM0 383C-18.2254 383 -33 368.225 -33 350C-33 331.775 -18.2254 317 0 317C18.2254 317 33 331.775 33 350C33 368.225 18.2254 383 0 383Z" fill="#012F34"/>
<path fill-rule="evenodd" clip-rule="evenodd" d="M100 406H96V410H100V406ZM89 406H93V410H89V406ZM89 414H93V418H89V414ZM93 422H89V426H93V422ZM89 430H93V434H89V430ZM93 438H89V442H93V438ZM89 446H93V450H89V446ZM86 406H82V410H86V406ZM86 414H82V418H86V414ZM82 422H86V426H82V422ZM86 430H82V434H86V430ZM82 438H86V442H82V438ZM86 446H82V450H86V446ZM100 414H96V418H100V414ZM79 406H75V410H79V406ZM79 414H75V418H79V414ZM75 422H79V426H75V422ZM79 430H75V434H79V430ZM75 438H79V442H75V438ZM79 446H75V450H79V446ZM100 422H96V426H100V422ZM72 406H68V410H72V406ZM72 414H68V418H72V414ZM68 422H72V426H68V422ZM72 430H68V434H72V430ZM68 438H72V442H68V438ZM72 446H68V450H72V446ZM100 430H96V434H100V430ZM65 406H61V410H65V406ZM65 414H61V418H65V414ZM61 422H65V426H61V422ZM65 430H61V434H65V430ZM61 438H65V442H61V438ZM65 446H61V450H65V446ZM100 438H96V442H100V438ZM58 406H54V410H58V406ZM58 414H54V418H58V414ZM54 422H58V426H54V422ZM58 430H54V434H58V430ZM54 438H58V442H54V438ZM58 446H54V450H58V446ZM100 446H96V450H100V446ZM51 406H47V410H51V406ZM51 414H47V418H51V414ZM47 422H51V426H47V422ZM51 430H47V434H51V430ZM47 438H51V442H47V438ZM51 446H47V450H51V446Z" fill="#F67E7E"/>
<circle cx="1017" cy="700" r="100" fill="#2C6269"/>
<path fill-rule="evenodd" clip-rule="evenodd" d="M1175 800C1230.23 800 1275 755.228 1275 700C1275 644.772 1230.23 600 1175 600C1119.77 600 1075 644.772 1075 700C1075 755.228 1119.77 800 1175 800ZM1175 733C1193.23 733 1208 718.225 1208 700C1208 681.775 1193.23 667 1175 667C1156.77 667 1142 681.775 1142 700C1142 718.225 1156.77 733 1175 733Z" fill="#012F34"/>
<rect x="1275" y="643" width="43" height="43" transform="rotate(180 1275 643)" fill="#79C8C7"/>
<path fill-rule="evenodd" clip-rule="evenodd" d="M1150.51 800C1205.74 800 1250.51 755.228 1250.51 700C1250.51 644.772 1205.74 600 1150.51 600C1095.28 600 1050.51 644.772 1050.51 700C1050.51 755.228 1095.28 800 1150.51 800ZM1150.51 733C1168.74 733 1183.51 718.225 1183.51 700C1183.51 681.775 1168.74 667 1150.51 667C1132.29 667 1117.51 681.775 1117.51 700C1117.51 718.225 1132.29 733 1150.51 733Z" fill="#F67E7E"/>
<path fill-rule="evenodd" clip-rule="evenodd" d="M1017 600H917V604H1017V600ZM1017 608H917V612H1017V608ZM917 616H1017V620H917V616ZM1017 624H917V628H1017V624ZM917 632H1017V636H917V632ZM1017 640H917V644H1017V640Z" fill="#79C8C7"/>
</g>
</g>
<defs>
<clipPath id="clip0_0_4122">
<rect width="1440" height="700" fill="white"/>
</clipPath>
</defs>
</svg>
